<svg version="1.2" xmlns="http://www.w3.org/2000/svg" viewBox="0 0 2450 886" width="2450" height="886"><style>.a{fill:#231f20}.b{fill:none}</style><path  d="m1762.3 170.7h85.4v3.9h-71.3l-18.2 57.1q27.3-2.8 46 2.9 7.9 2.5 14.8 7.1 6.9 4.5 10.9 12.1 4 7.6 4.3 18.6 0.3 11-5 26.3-5.4 16.2-13.3 27.7-7.9 11.6-17.3 19.3-9.3 7.7-19.5 11.8-10.2 4.1-20.3 5.4-10.1 1.3-19.5 0.2-9.4-1.2-17.1-4.2-7.8-3-13.4-7.5-5.6-4.4-8-9.6l2.5-1.3q3.1 5.7 8.7 10.2 2.4 1.9 5.6 3.7 3.2 1.7 7.2 3.2 3.9 1.4 8.8 2.3 4.9 0.8 10.8 0.8 11.5 0 22.5-5.4 10.9-5.4 20.2-14.4 9.3-8.9 16.4-20.3 7.2-11.3 11.1-23.3 3.9-11.9 4.2-23.3 0.3-11.3-4.3-20.3-4.6-8.9-14.4-14.3-9.8-5.4-25.9-5.4-8.1 0-14.8 1.7-6.8 1.7-11.7 3.7-5.8 2.4-10.3 5.4z"/><path fill-rule="evenodd" class="a" d="m1910.6 169.6q13.5 0 22.2 6.1 8.6 6.1 12.7 16 4.2 10 4.3 22.8 0 12.7-3.3 25.9-3.4 13.3-10 26-6.6 12.7-15.7 22.7-9.1 10-20.4 16.1-11.4 6-24.3 6-12.9 0-20.7-6-7.7-6.1-11.1-16.1-3.4-10-2.8-22.7 0.5-12.7 4.3-26 3.8-13.2 10.3-25.9 6.6-12.8 15-22.8 8.5-9.9 18.6-16 10-6.1 20.9-6.1zm-31.4 136.2q10.4 0 19.2-5.7 8.8-5.7 15.8-15 6.9-9.4 12-21.2 5-11.9 7.7-24.3 2.6-12.4 2.9-24.3 0.3-11.9-2.3-21.2-2.5-9.3-8.1-15-5.5-5.7-14.3-5.7-10.7 0-19.4 5.7-8.8 5.7-15.4 15-6.7 9.3-11.2 21.2-4.5 11.9-6.8 24.3-2.3 12.4-2.2 24.3 0.1 11.8 2.5 21.2 2.4 9.3 7.3 15 4.9 5.7 12.3 5.7z"/><path class="a" d="m1952.1 302.1q-1.1 3.8-4.2 6.5-3.1 2.6-6.7 2.6-3.4 0-5.2-2.7-1.8-2.7-0.9-6.5 1-3.8 4.2-6.5 3.1-2.7 6.6-2.7 3.4 0 5.3 2.8 1.8 2.7 0.9 6.5z"/><path class="a" d="m2062 258.6l3.1 0.4-99.5 227.9q-2.4 6.5-5.3 11.6-1.3 2.3-2.8 4.3-1.5 2.1-3.1 3.8-1.7 1.6-3.5 2.6-1.8 1-3.8 1-5 0-6.5-4.4-1.6-4.4-0.7-11.8 0.8-7.3 3.6-17.1 2.7-9.8 6.4-20.7 3.7-10.9 8-22.2 4.2-11.3 7.9-21.7 2.5-7 6.4-17.5 3.9-10.6 8.7-23.5 4.7-12.8 10.1-27.1 5.4-14.3 10.9-28.8 5.4-14.5 10.7-28.4 5.3-13.9 9.8-25.8-3.4 6.1-7.3 12.2-3.9 6.1-8 11.7-4 5.6-8 10.5-4 4.9-7.6 8.6-3.7 3.6-6.8 5.7-3.1 2.1-5.4 2.1-4.7 0-6.7-3.5-2-3.5-2-9.7 0-6.1 1.9-14.5 1.9-8.3 5.3-18 3.4-9.8 7-18 3.5-8.2 6.6-14.3 3.3-7.2 6.7-13.1h17q-4 7.3-7.8 15.2-3.3 6.6-6.7 14.6-3.5 8.1-6 15.6-2.5 7.6-4.7 14.5-2.2 6.8-3.5 12-1.3 5.3-1.3 8.3 0 3.1 1.8 3.1 1.1 0 3.9-2.8 2.8-2.8 6.5-7.5 3.7-4.6 8.1-10.7 4.4-6.2 8.6-12.8 4.2-6.5 8.1-13.1 3.8-6.6 6.6-12.4 2.1-5.5 3.8-10 1.8-4.5 3-7.7 1.4-3.8 2.4-6.7h17.8q-3.4 8-8.7 20.7-5.3 12.7-11.9 28.7-6.5 16-14 34.4-7.4 18.4-15.1 37.6-7.6 19.2-15 38.4-7.5 19.2-14 36.7-6.5 17.6-11.8 32.8-5.3 15.2-8.6 26.4-3.4 11.2-4.3 17.6-1 6.4 0.9 6.4 1.6 0 5.8-8.1 4.2-8.1 10.8-23.1 6.7-15.1 15.8-36.6 9.1-21.4 20.6-48.3 11.5-26.8 25.5-58.4 13.9-31.7 30.3-67.1z"/><path class="a" d="m2060.8 260.3l23.1-39.5h17.9q-7.9 19.8-13.5 36.3-2.3 7-4.5 13.9-2.3 7-3.7 12.8-1.4 5.8-2 9.9-0.5 4.2 0.4 5.7 1 1.5 3 0.5 2.1-0.9 4.9-3.5 2.8-2.5 6-6.4 3.2-3.8 6.5-8 7.6-9.9 16.6-23.5l1.7 2.2q-9.2 13.9-17.9 24.8-3.8 4.7-7.7 9.3-3.9 4.6-7.8 8.2-3.8 3.7-7.2 6.1-3.4 2.5-6.2 2.9-4.9 0.8-7.7-2.1-2.7-3-2.3-11.5 0.4-8.4 4.5-23.3 4.1-14.9 12.7-38.3l-15.2 25.7z"/><path fill-rule="evenodd" class="a" d="m2130.6 259.2q-4.2 10.7-6.5 19.4-1.1 3.8-1.8 7.4-0.7 3.6-0.8 6.6-0.2 3.1 0.4 5.2 0.6 2.1 2.2 2.7 1.6 0.7 4-0.8 2.4-1.4 5.3-4.3 2.8-2.8 6-6.6 3.1-3.8 6.1-7.8 7-9.6 15-22.2l1.3 2.1q-9.9 15.2-17.2 25.1-7.3 9.8-13.2 15.6-5.9 5.7-10.9 7.9-5 2.3-10.4 2.3-2.7 0-4.2-1.8-1.4-1.8-1.8-4.7-0.5-2.9-0.2-6.7 0.2-3.7 1-7.6 1.6-9.1 5.6-20.9 4.4-12.5 9.8-27.6 5.4-15.1 11.5-31.5 6.1-16.4 12.8-33.8 6.6-17.4 13.6-34.4 7-17 14-33.2 7-16.2 13.8-30.4 6.9-14.3 13.4-25.8 6.5-11.6 12.3-19.5 5.8-7.9 10.9-11.4 5-3.6 8.9-1.8 4.8 2.2 5.6 9.1 0.7 6.8-1.9 17.1-2.5 10.2-8 23.3-5.5 13-12.8 27.8-7.3 14.8-16.1 30.8-8.8 16-18.2 32-9.4 16-18.9 31.4-9.4 15.4-18.2 29.2-3.4 10.2-6.5 19.7-3.1 9.4-5.9 18.1zm100.1-233.7q-2.8-1.7-6.8 1.8-4 3.4-8.8 11.1-4.7 7.7-10.2 19.1-5.4 11.4-11.2 25.2-5.9 13.8-12 29.6-6.1 15.8-12.1 32.5-6.1 16.7-12 33.7-5.8 17-11.3 33.1 8.3-13.4 17.1-28 8.8-14.6 17.5-29.6 8.6-14.9 16.5-29.6 8-14.7 14.7-28.3 6.7-13.5 11.8-25.5 5-11.9 7.7-21.2 2.7-9.3 2.7-15.5-0.1-6.2-3.6-8.4z"/><path fill-rule="evenodd" d="m2416.5 848.6h-138.2c-0.6-1.1-107.4-186.6-107.4-186.6h-222.4c0 0-100.8 185.5-101.4 186.6h-12.7c1.7-3.2 271-498.9 271.7-500.1h23.1c0.6 1.1 285.4 496.8 287.3 500.1zm-251.4-198.7l-107.5-187.5-0.9 1.8-101 185.7c0 0 209.4 0 209.4 0zm-1302-270v202.6h56.2c0.4 0 43.1 1 75.2-10.2 39.9-15.6 64.6-45.4 73.4-88.5h10.8v209h-10.8c-8.9-43.5-33.6-73.1-73.4-88.2-32.1-11.3-74.8-10.2-75.3-10.2h-56.1v242.3h157.1c1.5 0.1 151.6 1.5 185.8-133h10.8v144.9h-483.9v-480.9h483.9v113.9h-11c-54.7-106.9-184.4-101.8-185.7-101.7zm-221.9 226.3v4.2c-1 151.9-128.2 202.8-129.5 203.3-0.6 0.1-50.9 24.3-140.5 34.4 0 0-1.9 0.2-1.9 0.2l-23 2c-0.1 0-15.7 1.1-15.7 1.1-25.2 1-65.3 0.9-94.6 0.6l-88.9-1.7c-31.1-1-55.9-1.7-89.6-1.7v-480.9c31.9 0 55.3-0.6 89.6-1.7 0.4 0 43.1-1.1 88.9-1.4 29.2-0.2 69.4-0.4 94.6 0.6l15.7 0.8c0 0 13.6 1.4 13.6 1.4l11.3 1.1c89.6 9.8 139.9 34.3 140.4 34.6l1.6 0.8v-0.7c13.9 6 127 59.4 128 203zm-131.2 2c0-84.2-19.2-128.3-19.4-128.7-19.6-47.6-59.7-79.5-119-94.8 0 0-2.9-0.7-2.9-0.7l-10.4-2.4c-0.1 0-6.3-1.1-6.3-1.1l-9.8-1.5c-10.9-1.2-24.3-2.1-39.7-2.8 0 0-24.8-0.1-24.8-0.1l-9.4 0.1-32.3 0.2-26.4 0.9c0.1 0-4.3 0.4-4.3 0.4-6.2 0.2-11.5 1-16.4 1.9l-0.9 0.1v456.8l0.8 0.2c4.9 1.2 10.7 1.7 16.7 2.2 0.1 0 3.9 0.3 3.9 0.3 0.5 0.1 26.6 0.9 26.6 0.9 0 0 13.3 0.1 13.3 0.1l19 0.2 34.2-0.3c10.1-0.2 25.2-0.8 39.7-2.8 0 0 16.1-2.6 16.1-2.6l13.3-3.1c40.7-10.2 94.3-35 119-94.5 0.3-0.6 19.4-44.8 19.4-128.9zm1299.3 79.2c0 29.9-12.9 61.8-34.4 85.4-49 53.5-136.6 84.3-240.3 84.3-94.1 0-212.8-25.8-223.1-28.1v-125.2h9.2c0.5 1.4 3.4 10.4 3.4 10.4 5.5 15.1 13.2 29.5 22.9 42.9 28.2 40.7 83.7 89.2 187.6 89.2 0.8 0.1 86.7 3.8 141.2-33.9 4-2.8 8-6 11.8-9.4 9.5-8.5 17.1-18.4 22.6-29.3 0 0 3-7.7 3-7.7 0.1-0.2 0.7-2.5 0.7-2.5 1.7-7.8 1.7-15.2 1.6-18-2.2-38.2-32.7-53.9-81.1-66.8l-28.4-7.3c-38-9.4-101.2-25-165.1-48.5-20.4-8.7-38.4-17.7-53.4-27-33.4-22.6-46.4-46-49.5-52.6-6.2-14.9-9.3-31.1-9.3-48.3 0-41.1 24.1-68.9 44.3-85.1 43-32.6 114.2-52.9 185.8-52.9 1.3-0.1 130.9-3.6 197.9 43.1v97h-8.9c-1.7-6.7-9.7-34-32-62l-6.6-7.8-3.1-3.4c-0.1-0.1-1.5-1.5-1.5-1.5l-0.5-0.5-7.4-7.2-4.1-3.5c-34.6-29.5-79.6-44.5-133.8-44.5-58.5 0-95.2 13-115.6 23.8-24.9 13.3-40.5 31.3-43 49.4l-0.4 4.8c0 0 0 1.6 0 1.6 0 5.2 1.6 23.4 22.5 38.7 4.2 2.7 8.9 5.3 14.1 7.7 8.2 3.5 18.8 6.8 26.3 9 0 0 5.7 1.6 5.7 1.6 26.8 7.4 72.1 19.5 135.2 34.5 29.3 7.8 53.3 14.5 71.6 20 27.3 8.7 93.6 33.4 119.7 76.5 9.5 16.3 14.4 34.2 14.4 53.1z"/><path class="b" d="m-303.3-257.7z"/></svg>